# xmcd
#
# Track frame offsets: 
#        150
#        14225
#        31327
#        44952
#        62260
#        80470
#        92735
#        118332
#        133845
#        146222
#
# Disc length: 2130 seconds
#
# Revision: 7
# Processed by: cddbd v1.5.1PL0 Copyright (c) Steve Scherf et al.
# Submitted via: ExactAudioCopy v0.95a5
#
DISCID=9708500a
DTITLE=Various Artist - Country Now!
DYEAR=1900
DGENRE=Country
TTITLE0=Alabama - She Ain't Your Ordinary Girl
TTITLE1=The Mavericks - Here Comes The Rain
TTITLE2=Terri Clark - When Boy Meets Girl
TTITLE3=David Lee Murphy - The Road You Leave Behind
TTITLE4=Rhett Akins - That Ain't My Truck
TTITLE5=Mark Chesnutt - It's A Little Too Late
TTITLE6=Vince Gill - Worlds Apart
TTITLE7=Tracy Byrd - Don't Take Her She's All I've Got
TTITLE8=Gary Allen - Her Man
TTITLE9=Billy Yates - Flowers
EXTD=
EXTT0=
EXTT1=
EXTT2=
EXTT3=
EXTT4=
EXTT5=
EXTT6=
EXTT7=
EXTT8=
EXTT9=
PLAYORDER=
